<?xml version="1.0" standalone="no"?>
<!DOCTYPE svg PUBLIC "-//W3C//DTD SVG 20010904//EN"
 "http://www.w3.org/TR/2001/REC-SVG-20010904/DTD/svg10.dtd">
<svg version="1.0" xmlns="http://www.w3.org/2000/svg"
 width="512.000000pt" height="512.000000pt" viewBox="0 0 512.000000 512.000000"
 preserveAspectRatio="xMidYMid meet">
<metadata>
Created by potrace 1.14, written by Peter Selinger 2001-2017
</metadata>
<g transform="translate(0.000000,512.000000) scale(0.100000,-0.100000)"
fill="#000000" stroke="none">
<path d="M477 4624 c-15 -15 8 -34 41 -34 79 0 164 -68 293 -235 l47 -60 -2
-460 c-2 -405 -5 -469 -21 -535 -49 -204 -147 -310 -298 -322 -15 -1 -28 -10
-30 -20 -5 -17 14 -18 353 -18 335 0 358 1 356 18 -2 9 -7 17 -12 17 -154 8
-252 124 -295 348 -8 41 -13 209 -14 495 -2 412 -1 432 16 415 9 -10 144 -180
299 -378 155 -198 289 -369 298 -380 9 -11 48 -61 87 -110 38 -50 74 -95 80
-102 5 -6 64 -81 130 -167 l120 -155 53 0 52 -1 1 588 c1 693 1 684 39 812 44
147 148 244 270 252 31 1 40 6 40 20 0 17 -19 18 -355 18 -297 0 -355 -2 -355
-14 0 -16 21 -26 53 -26 12 0 40 -9 62 -19 102 -47 163 -149 196 -331 8 -43
12 -202 13 -468 1 -221 0 -402 -1 -402 -1 0 -233 292 -591 744 -79 100 -154
193 -165 207 -12 15 -71 90 -132 168 l-110 140 -256 1 c-141 0 -258 -3 -262
-6z"/>
<path d="M2950 4610 c0 -15 7 -20 25 -20 39 0 89 -24 113 -54 38 -49 42 -106
42 -618 1 -455 2 -499 20 -571 50 -200 180 -342 365 -400 102 -32 300 -32 400
1 213 68 343 223 370 439 3 29 7 246 7 482 1 381 4 439 20 502 32 126 120 203
251 217 46 5 61 11 63 25 2 16 -20 17 -335 17 -328 0 -337 0 -338 -20 -1 -11
1 -19 5 -18 29 8 127 -17 164 -42 56 -37 82 -73 109 -151 22 -62 23 -77 25
-504 2 -475 -2 -515 -51 -623 -30 -66 -124 -162 -182 -188 -227 -99 -482 -3
-563 213 -11 30 -24 73 -30 96 -5 25 -8 257 -7 557 2 483 3 517 21 550 10 18
24 39 30 46 12 12 72 45 81 44 63 -2 75 1 75 20 0 20 -7 20 -340 20 -333 0
-340 0 -340 -20z"/>
<path d="M726 2222 c-10 -16 10 -29 52 -35 53 -6 104 -44 136 -100 13 -23 83
-188 154 -367 72 -179 150 -374 175 -435 25 -60 66 -162 92 -225 26 -63 53
-128 60 -145 8 -16 45 -106 84 -200 59 -144 73 -170 91 -170 24 0 -3 -64 285
675 328 840 404 970 566 972 31 0 39 4 39 19 0 18 -13 19 -319 19 -298 0 -319
-1 -317 -17 2 -14 16 -20 55 -24 157 -20 208 -160 147 -400 -29 -114 -316
-863 -327 -852 -19 20 -399 1033 -405 1079 -4 31 -2 66 6 88 15 45 63 86 101
86 22 0 29 5 29 20 0 20 -7 20 -349 20 -193 0 -352 -4 -355 -8z"/>
<path d="M3461 1922 c-63 -169 -127 -338 -142 -377 -15 -38 -53 -140 -84 -225
-31 -85 -61 -164 -65 -175 -5 -11 -32 -76 -60 -145 -125 -302 -216 -433 -292
-421 -5 0 -8 -8 -8 -19 0 -20 7 -20 280 -20 267 0 280 1 280 19 0 15 -8 19
-44 19 -126 3 -198 81 -197 216 0 77 1 84 27 175 l17 61 61 1 c310 2 529 -1
536 -8 10 -11 89 -206 106 -263 30 -97 12 -162 -49 -178 -18 -5 -33 -16 -35
-25 -3 -16 21 -17 307 -17 292 0 311 1 311 18 0 12 -9 18 -27 20 -81 6 -123
59 -198 247 -26 66 -54 134 -61 150 -7 17 -43 104 -80 195 -92 230 -328 803
-415 1008 -13 32 -28 52 -38 52 -12 0 -45 -78 -130 -308z m103 -372 c54 -135
115 -290 137 -345 22 -55 44 -108 49 -117 9 -17 2 -18 -97 -19 -104 0 -359 0
-434 1 l-37 0 38 103 c139 370 230 619 230 629 0 28 22 -21 114 -252z"/>
</g>
</svg>
