<svg width="2056" height="2056" viewBox="0 0 2056 2056" fill="none" xmlns="http://www.w3.org/2000/svg">
<path d="M1116.84 635H1221V1422H1106.8L941.157 855.008V1422H837V635H956.216L1116.84 1186.91V635Z" fill="white"/>
<path d="M482.175 560.703V875.58C482.175 920.741 473.792 956.285 457.026 982.211C441.098 1007.3 417.626 1022.35 386.608 1027.37C418.464 1030.72 442.356 1045.35 458.284 1071.28C474.211 1097.21 482.175 1131.91 482.175 1175.4V1494.04C482.175 1508.26 485.109 1518.3 490.978 1524.15C496.846 1530 507.325 1532.93 522.414 1532.93H579V1622H475.888C433.973 1622 405.47 1611.55 390.381 1590.64C375.291 1569.73 367.746 1542.55 367.746 1509.1V1206.76C367.746 1159.93 359.363 1125.64 342.597 1103.9C326.669 1082.15 300.262 1071.28 263.377 1071.28H242V983.466H263.377C300.262 983.466 326.669 972.593 342.597 950.849C359.363 929.105 367.746 893.979 367.746 845.472V546.904C367.746 513.451 375.291 486.27 390.381 465.362C405.47 444.454 433.973 434 475.888 434H579V523.069H522.414C507.325 523.069 496.846 525.996 490.978 531.85C485.109 537.704 482.175 547.322 482.175 560.703Z" fill="white" fill-opacity="0.75"/>
<path d="M1574.61 875.58V560.703C1574.61 547.322 1571.68 537.704 1565.83 531.85C1559.97 525.996 1549.52 523.069 1534.46 523.069H1478V434H1580.88C1622.71 434 1650.73 444.454 1664.95 465.362C1680 486.27 1687.53 513.451 1687.53 546.904V845.472C1687.53 893.979 1695.9 929.105 1712.63 950.849C1729.35 972.593 1756.12 983.466 1792.93 983.466H1813V1071.28H1792.93C1756.12 1071.28 1729.35 1082.15 1712.63 1103.9C1695.9 1125.64 1687.53 1159.93 1687.53 1206.76V1509.1C1687.53 1542.55 1680 1569.73 1664.95 1590.64C1650.73 1611.55 1622.71 1622 1580.88 1622H1478V1532.93H1534.46C1549.52 1532.93 1559.97 1530 1565.83 1524.15C1571.68 1518.3 1574.61 1508.26 1574.61 1494.04V1175.4C1574.61 1131.91 1582.56 1097.21 1598.45 1071.28C1614.34 1045.35 1638.18 1030.72 1669.97 1027.37C1639.02 1022.35 1615.18 1007.3 1598.45 982.211C1582.56 956.285 1574.61 920.741 1574.61 875.58Z" fill="white" fill-opacity="0.75"/>
</svg>
