<svg width="1576" height="1133" viewBox="0 0 1576 1133" fill="none" xmlns="http://www.w3.org/2000/svg">
<path d="M470.25 222.58H525.86V642H464.89L376.45 339.83V642H320.84V222.58H384.49L470.25 516.71V222.58ZM732.995 573.66V222.58H793.965V583.04C793.965 602.247 788.828 616.987 778.555 627.26C768.728 637.087 752.871 642 730.985 642H686.765V593.09H713.565C721.605 593.09 726.741 591.75 728.975 589.07C731.655 586.39 732.995 581.253 732.995 573.66ZM654.605 222.58V573.66C654.605 581.253 655.945 586.39 658.625 589.07C661.305 591.75 666.665 593.09 674.705 593.09H695.475V642H656.615C634.728 642 618.648 637.087 608.375 627.26C598.548 616.987 593.635 602.247 593.635 583.04V222.58H654.605ZM1005.32 222.58H1067.63L991.924 642H906.164L830.454 222.58H892.764L949.044 586.39L1005.32 222.58ZM1227.94 495.94V544.85H1090.59V495.94H1227.94ZM1280.87 642H1219.9L1156.92 274.84L1099.97 642H1039L1113.37 222.58H1201.14L1280.87 642Z" fill="white"/>
<path d="M132.66 185.06V353.23C132.66 377.35 128.193 396.333 119.26 410.18C110.773 423.58 98.2667 431.62 81.74 434.3C98.7133 436.087 111.443 443.903 119.93 457.75C128.417 471.597 132.66 490.133 132.66 513.36V683.54C132.66 691.133 134.223 696.493 137.35 699.62C140.477 702.747 146.06 704.31 154.1 704.31H184.25V751.88H129.31C106.977 751.88 91.79 746.297 83.75 735.13C75.71 723.963 71.69 709.447 71.69 691.58V530.11C71.69 505.097 67.2233 486.783 58.29 475.17C49.8033 463.557 35.7333 457.75 16.08 457.75H4.69V410.85H16.08C35.7333 410.85 49.8033 405.043 58.29 393.43C67.2233 381.817 71.69 363.057 71.69 337.15V177.69C71.69 159.823 75.71 145.307 83.75 134.14C91.79 122.973 106.977 117.39 129.31 117.39H184.25V164.96H154.1C146.06 164.96 140.477 166.523 137.35 169.65C134.223 172.777 132.66 177.913 132.66 185.06Z" fill="white"/>
<path d="M1442.28 353.23V185.06C1442.28 177.913 1440.72 172.777 1437.59 169.65C1434.46 166.523 1428.88 164.96 1420.84 164.96H1390.69V117.39H1445.63C1467.96 117.39 1482.93 122.973 1490.52 134.14C1498.56 145.307 1502.58 159.823 1502.58 177.69V337.15C1502.58 363.057 1507.05 381.817 1515.98 393.43C1524.91 405.043 1539.21 410.85 1558.86 410.85H1569.58V457.75H1558.86C1539.21 457.75 1524.91 463.557 1515.98 475.17C1507.05 486.783 1502.58 505.097 1502.58 530.11V691.58C1502.58 709.447 1498.56 723.963 1490.52 735.13C1482.93 746.297 1467.96 751.88 1445.63 751.88H1390.69V704.31H1420.84C1428.88 704.31 1434.46 702.747 1437.59 699.62C1440.72 696.493 1442.28 691.133 1442.28 683.54V513.36C1442.28 490.133 1446.52 471.597 1455.01 457.75C1463.5 443.903 1476.23 436.087 1493.2 434.3C1476.67 431.62 1463.94 423.58 1455.01 410.18C1446.52 396.333 1442.28 377.35 1442.28 353.23Z" fill="white"/>
<path d="M379.864 936.68V877.52C379.864 872.88 379.168 869.98 377.776 868.82C376.616 867.428 373.716 866.732 369.076 866.732H345.412C336.132 866.732 329.172 864.528 324.532 860.12C320.124 855.48 317.92 848.52 317.92 839.24V779.036C317.92 769.756 320.124 762.912 324.532 758.504C329.172 753.864 336.132 751.544 345.412 751.544H376.036C385.316 751.544 392.16 753.864 396.568 758.504C401.208 762.912 403.528 769.756 403.528 779.036V812.444H379.516V782.864C379.516 778.224 378.82 775.324 377.428 774.164C376.268 772.772 373.368 772.076 368.728 772.076H352.72C348.312 772.076 345.412 772.772 344.02 774.164C342.628 775.324 341.932 778.224 341.932 782.864V835.412C341.932 839.82 342.628 842.72 344.02 844.112C345.412 845.504 348.312 846.2 352.72 846.2H376.384C385.664 846.2 392.508 848.52 396.916 853.16C401.556 857.568 403.876 864.412 403.876 873.692V940.508C403.876 949.788 401.556 956.748 396.916 961.388C392.508 965.796 385.664 968 376.384 968H346.108C336.828 968 329.868 965.796 325.228 961.388C320.82 956.748 318.616 949.788 318.616 940.508V907.1H342.628V936.68C342.628 941.088 343.324 943.988 344.716 945.38C346.108 946.772 349.008 947.468 353.416 947.468H369.076C373.716 947.468 376.616 946.772 377.776 945.38C379.168 943.988 379.864 941.088 379.864 936.68ZM502.064 918.932V782.864C502.064 778.224 501.368 775.324 499.976 774.164C498.816 772.772 495.916 772.076 491.276 772.076H479.444V751.544H498.236C507.516 751.544 514.36 753.864 518.768 758.504C523.408 762.912 525.728 769.756 525.728 779.036V918.932H502.064ZM502.064 936.68V901.532H525.728V940.508C525.728 949.788 523.408 956.748 518.768 961.388C514.36 965.796 507.516 968 498.236 968H477.008V947.468H491.276C495.916 947.468 498.816 946.772 499.976 945.38C501.368 943.988 502.064 941.088 502.064 936.68ZM458.912 782.864V919.28H435.248V779.036C435.248 769.756 437.452 762.912 441.86 758.504C446.5 753.864 453.46 751.544 462.74 751.544H481.532V772.076H469.7C465.292 772.076 462.392 772.772 461 774.164C459.608 775.324 458.912 778.224 458.912 782.864ZM458.912 898.748V936.68C458.912 941.088 459.608 943.988 461 945.38C462.392 946.772 465.292 947.468 469.7 947.468H480.488V968H462.74C453.46 968 446.5 965.796 441.86 961.388C437.452 956.748 435.248 949.788 435.248 940.508V898.748H458.912ZM562.39 751.544H586.402V968H562.39V751.544ZM633.034 848.636V869.168H577.702V848.636H633.034ZM646.954 751.544V772.076H577.702V751.544H646.954ZM685.142 751.544H708.806V968H685.142V751.544ZM743.606 751.544V772.076H650.342V751.544H743.606ZM909.017 751.544H933.029L901.361 968H865.169L840.809 796.436L816.797 968H780.605L748.937 751.544H772.949L799.049 951.296L826.541 751.544H855.077L882.569 951.296L909.017 751.544ZM1025.89 892.484V913.016H965.333V892.484H1025.89ZM1050.59 968H1026.58L994.217 768.248L965.681 968H941.669L975.425 751.544H1013.36L1050.59 968ZM1141.69 846.2V782.864C1141.69 778.224 1140.99 775.324 1139.6 774.164C1138.44 772.772 1135.54 772.076 1130.9 772.076H1074.87V751.544H1137.86C1147.14 751.544 1153.99 753.864 1158.39 758.504C1163.03 762.912 1165.35 769.756 1165.35 779.036V850.028C1165.35 859.308 1163.03 866.268 1158.39 870.908C1153.99 875.316 1147.14 877.52 1137.86 877.52H1089.14V856.988H1130.9C1135.54 856.988 1138.44 856.292 1139.6 854.9C1140.99 853.508 1141.69 850.608 1141.69 846.2ZM1074.87 751.544H1098.54V968H1074.87V751.544ZM1115.94 868.472H1140.65L1176.49 968H1150.74L1115.94 868.472ZM1201.64 751.544H1225.65V968H1201.64V751.544ZM1272.28 845.156V865.688H1216.95V845.156H1272.28ZM1282.72 751.544V772.076H1216.95V751.544H1282.72ZM1285.16 947.468V968H1216.95V947.468H1285.16Z" fill="white"/>
</svg>
