<svg width="2056" height="2056" viewBox="0 0 2056 2056" fill="none" xmlns="http://www.w3.org/2000/svg">
<path d="M710.25 684.58H765.86V1104H704.89L616.45 801.83V1104H560.84V684.58H624.49L710.25 978.71V684.58ZM972.995 1035.66V684.58H1033.96V1045.04C1033.96 1064.25 1028.83 1078.99 1018.55 1089.26C1008.73 1099.09 992.871 1104 970.985 1104H926.765V1055.09H953.565C961.605 1055.09 966.741 1053.75 968.975 1051.07C971.655 1048.39 972.995 1043.25 972.995 1035.66ZM894.605 684.58V1035.66C894.605 1043.25 895.945 1048.39 898.625 1051.07C901.305 1053.75 906.665 1055.09 914.705 1055.09H935.475V1104H896.615C874.728 1104 858.648 1099.09 848.375 1089.26C838.548 1078.99 833.635 1064.25 833.635 1045.04V684.58H894.605ZM1245.32 684.58H1307.63L1231.92 1104H1146.16L1070.45 684.58H1132.76L1189.04 1048.39L1245.32 684.58ZM1467.94 957.94V1006.85H1330.59V957.94H1467.94ZM1520.87 1104H1459.9L1396.92 736.84L1339.97 1104H1279L1353.37 684.58H1441.14L1520.87 1104Z" fill="white"/>
<path d="M372.66 647.06V815.23C372.66 839.35 368.193 858.333 359.26 872.18C350.773 885.58 338.267 893.62 321.74 896.3C338.713 898.087 351.443 905.903 359.93 919.75C368.417 933.597 372.66 952.133 372.66 975.36V1145.54C372.66 1153.13 374.223 1158.49 377.35 1161.62C380.477 1164.75 386.06 1166.31 394.1 1166.31H424.25V1213.88H369.31C346.977 1213.88 331.79 1208.3 323.75 1197.13C315.71 1185.96 311.69 1171.45 311.69 1153.58V992.11C311.69 967.097 307.223 948.783 298.29 937.17C289.803 925.557 275.733 919.75 256.08 919.75H244.69V872.85H256.08C275.733 872.85 289.803 867.043 298.29 855.43C307.223 843.817 311.69 825.057 311.69 799.15V639.69C311.69 621.823 315.71 607.307 323.75 596.14C331.79 584.973 346.977 579.39 369.31 579.39H424.25V626.96H394.1C386.06 626.96 380.477 628.523 377.35 631.65C374.223 634.777 372.66 639.913 372.66 647.06Z" fill="#1F855C"/>
<path d="M1682.28 815.23V647.06C1682.28 639.913 1680.72 634.777 1677.59 631.65C1674.46 628.523 1668.88 626.96 1660.84 626.96H1630.69V579.39H1685.63C1707.96 579.39 1722.93 584.973 1730.52 596.14C1738.56 607.307 1742.58 621.823 1742.58 639.69V799.15C1742.58 825.057 1747.05 843.817 1755.98 855.43C1764.91 867.043 1779.21 872.85 1798.86 872.85H1809.58V919.75H1798.86C1779.21 919.75 1764.91 925.557 1755.98 937.17C1747.05 948.783 1742.58 967.097 1742.58 992.11V1153.58C1742.58 1171.45 1738.56 1185.96 1730.52 1197.13C1722.93 1208.3 1707.96 1213.88 1685.63 1213.88H1630.69V1166.31H1660.84C1668.88 1166.31 1674.46 1164.75 1677.59 1161.62C1680.72 1158.49 1682.28 1153.13 1682.28 1145.54V975.36C1682.28 952.133 1686.52 933.597 1695.01 919.75C1703.5 905.903 1716.23 898.087 1733.2 896.3C1716.67 893.62 1703.94 885.58 1695.01 872.18C1686.52 858.333 1682.28 839.35 1682.28 815.23Z" fill="#1F855C"/>
<path d="M619.864 1398.68V1339.52C619.864 1334.88 619.168 1331.98 617.776 1330.82C616.616 1329.43 613.716 1328.73 609.076 1328.73H585.412C576.132 1328.73 569.172 1326.53 564.532 1322.12C560.124 1317.48 557.92 1310.52 557.92 1301.24V1241.04C557.92 1231.76 560.124 1224.91 564.532 1220.5C569.172 1215.86 576.132 1213.54 585.412 1213.54H616.036C625.316 1213.54 632.16 1215.86 636.568 1220.5C641.208 1224.91 643.528 1231.76 643.528 1241.04V1274.44H619.516V1244.86C619.516 1240.22 618.82 1237.32 617.428 1236.16C616.268 1234.77 613.368 1234.08 608.728 1234.08H592.72C588.312 1234.08 585.412 1234.77 584.02 1236.16C582.628 1237.32 581.932 1240.22 581.932 1244.86V1297.41C581.932 1301.82 582.628 1304.72 584.02 1306.11C585.412 1307.5 588.312 1308.2 592.72 1308.2H616.384C625.664 1308.2 632.508 1310.52 636.916 1315.16C641.556 1319.57 643.876 1326.41 643.876 1335.69V1402.51C643.876 1411.79 641.556 1418.75 636.916 1423.39C632.508 1427.8 625.664 1430 616.384 1430H586.108C576.828 1430 569.868 1427.8 565.228 1423.39C560.82 1418.75 558.616 1411.79 558.616 1402.51V1369.1H582.628V1398.68C582.628 1403.09 583.324 1405.99 584.716 1407.38C586.108 1408.77 589.008 1409.47 593.416 1409.47H609.076C613.716 1409.47 616.616 1408.77 617.776 1407.38C619.168 1405.99 619.864 1403.09 619.864 1398.68ZM742.064 1380.93V1244.86C742.064 1240.22 741.368 1237.32 739.976 1236.16C738.816 1234.77 735.916 1234.08 731.276 1234.08H719.444V1213.54H738.236C747.516 1213.54 754.36 1215.86 758.768 1220.5C763.408 1224.91 765.728 1231.76 765.728 1241.04V1380.93H742.064ZM742.064 1398.68V1363.53H765.728V1402.51C765.728 1411.79 763.408 1418.75 758.768 1423.39C754.36 1427.8 747.516 1430 738.236 1430H717.008V1409.47H731.276C735.916 1409.47 738.816 1408.77 739.976 1407.38C741.368 1405.99 742.064 1403.09 742.064 1398.68ZM698.912 1244.86V1381.28H675.248V1241.04C675.248 1231.76 677.452 1224.91 681.86 1220.5C686.5 1215.86 693.46 1213.54 702.74 1213.54H721.532V1234.08H709.7C705.292 1234.08 702.392 1234.77 701 1236.16C699.608 1237.32 698.912 1240.22 698.912 1244.86ZM698.912 1360.75V1398.68C698.912 1403.09 699.608 1405.99 701 1407.38C702.392 1408.77 705.292 1409.47 709.7 1409.47H720.488V1430H702.74C693.46 1430 686.5 1427.8 681.86 1423.39C677.452 1418.75 675.248 1411.79 675.248 1402.51V1360.75H698.912ZM802.39 1213.54H826.402V1430H802.39V1213.54ZM873.034 1310.64V1331.17H817.702V1310.64H873.034ZM886.954 1213.54V1234.08H817.702V1213.54H886.954ZM925.142 1213.54H948.806V1430H925.142V1213.54ZM983.606 1213.54V1234.08H890.342V1213.54H983.606ZM1149.02 1213.54H1173.03L1141.36 1430H1105.17L1080.81 1258.44L1056.8 1430H1020.61L988.937 1213.54H1012.95L1039.05 1413.3L1066.54 1213.54H1095.08L1122.57 1413.3L1149.02 1213.54ZM1265.89 1354.48V1375.02H1205.33V1354.48H1265.89ZM1290.59 1430H1266.58L1234.22 1230.25L1205.68 1430H1181.67L1215.43 1213.54H1253.36L1290.59 1430ZM1381.69 1308.2V1244.86C1381.69 1240.22 1380.99 1237.32 1379.6 1236.16C1378.44 1234.77 1375.54 1234.08 1370.9 1234.08H1314.87V1213.54H1377.86C1387.14 1213.54 1393.99 1215.86 1398.39 1220.5C1403.03 1224.91 1405.35 1231.76 1405.35 1241.04V1312.03C1405.35 1321.31 1403.03 1328.27 1398.39 1332.91C1393.99 1337.32 1387.14 1339.52 1377.86 1339.52H1329.14V1318.99H1370.9C1375.54 1318.99 1378.44 1318.29 1379.6 1316.9C1380.99 1315.51 1381.69 1312.61 1381.69 1308.2ZM1314.87 1213.54H1338.54V1430H1314.87V1213.54ZM1355.94 1330.47H1380.65L1416.49 1430H1390.74L1355.94 1330.47ZM1441.64 1213.54H1465.65V1430H1441.64V1213.54ZM1512.28 1307.16V1327.69H1456.95V1307.16H1512.28ZM1522.72 1213.54V1234.08H1456.95V1213.54H1522.72ZM1525.16 1409.47V1430H1456.95V1409.47H1525.16Z" fill="#1F855C"/>
</svg>
